<svg width="26" height="26" viewBox="0 0 26 26" fill="none" xmlns="http://www.w3.org/2000/svg">
<g clip-path="url(#clip0_15_176)">
<path d="M26.0001 13.0795C26.0001 5.85479 20.1793 -0.00170898 13.0001 -0.00170898C5.81758 -8.39843e-05 -0.00317383 5.85479 -0.00317383 13.0812C-0.00317383 19.6088 4.75158 25.02 10.9656 26.0015V16.8609H7.66683V13.0812H10.9688V10.1968C10.9688 6.91917 12.9107 5.10892 15.8796 5.10892C17.3031 5.10892 18.79 5.36404 18.79 5.36404V8.58154H17.1503C15.5367 8.58154 15.033 9.59067 15.033 10.6258V13.0795H18.6372L18.062 16.8593H15.0313V25.9999C21.2453 25.0184 26.0001 19.6072 26.0001 13.0795Z" fill="#0A06FF"/>
</g>
<defs>
<clipPath id="clip0_15_176">
<rect width="26" height="26" fill="white"/>
</clipPath>
</defs>
</svg>
