<svg width="40" height="40" viewBox="0 0 40 40" fill="none" xmlns="http://www.w3.org/2000/svg">
<path d="M33.2583 11.1167C30.636 8.49442 27.2951 6.70864 23.658 5.98517C20.0208 5.26169 16.2508 5.633 12.8247 7.05215C9.39856 8.4713 6.4702 10.8745 4.40993 13.958C2.34965 17.0414 1.24999 20.6665 1.25 24.3749V31.2499H12.5V28.7499H3.75V24.3749C3.75 15.4147 11.0398 8.12494 20 8.12494C28.9602 8.12494 36.25 15.4147 36.25 24.3749V28.7499H27.5V31.2499H38.75V24.3749C38.7567 21.9117 38.2748 19.4715 37.3322 17.1957C36.3895 14.9199 35.0048 12.8537 33.2583 11.1167Z" fill="black"/>
<path d="M6.25 20.625H8.75V23.125H6.25V20.625ZM18.75 10H21.25V12.5H18.75V10ZM10.625 13.125H13.125V15.625H10.625V13.125ZM31.25 20.625H33.75V23.125H31.25V20.625ZM23.2205 26.1797L28.6267 14.9162L26.3728 13.8343L20.9679 25.0948C19.7715 24.8565 18.5293 25.0627 17.4741 25.6748C16.4189 26.2869 15.6233 27.263 15.2364 28.4199C14.8494 29.5767 14.8978 30.8351 15.3724 31.9588C15.847 33.0826 16.7153 33.9947 17.8143 34.524C18.9134 35.0533 20.1678 35.1635 21.3423 34.8339C22.5169 34.5044 23.5308 33.7577 24.1941 32.7339C24.8574 31.7101 25.1245 30.4795 24.9453 29.2729C24.766 28.0663 24.1527 26.9664 23.2205 26.1797ZM20 32.5C19.5055 32.5 19.0222 32.3534 18.6111 32.0787C18.2 31.804 17.8795 31.4135 17.6903 30.9567C17.5011 30.4999 17.4516 29.9972 17.548 29.5123C17.6445 29.0273 17.8826 28.5819 18.2322 28.2322C18.5819 27.8826 19.0273 27.6445 19.5123 27.548C19.9972 27.4516 20.4999 27.5011 20.9567 27.6903C21.4135 27.8795 21.804 28.2 22.0787 28.6111C22.3534 29.0222 22.5 29.5055 22.5 30C22.4993 30.6628 22.2356 31.2983 21.7669 31.7669C21.2983 32.2356 20.6628 32.4993 20 32.5Z" fill="black"/>
</svg>
