<svg width="80" height="80" viewBox="0 0 80 80" fill="none" xmlns="http://www.w3.org/2000/svg">
<path d="M69.81 56.1168C67.983 45.2119 62.7618 35.1615 54.89 27.3968C53.1667 25.7202 52.3067 24.8835 50.4033 24.1102C48.5 23.3335 46.8633 23.3335 43.5933 23.3335H36.4067C33.1367 23.3335 31.5 23.3335 29.5967 24.1102C27.6967 24.8835 26.83 25.7202 25.11 27.3968C17.2382 35.1615 12.017 45.2119 10.19 56.1168C8.56666 65.9102 17.6 73.3335 27.6933 73.3335H52.3067C62.4033 73.3335 71.44 65.9102 69.8067 56.1168" stroke="white" stroke-width="1.5" stroke-linecap="round" stroke-linejoin="round"/>
<path d="M45.4233 43.0634C44.7033 40.4001 41.0333 38.0001 36.63 39.7968C32.2267 41.5934 31.53 47.3701 38.1867 47.9867C41.2 48.2634 43.16 47.6634 44.9567 49.3601C46.7567 51.0534 47.09 55.7701 42.4933 57.0401C37.9033 58.3101 33.3533 56.3268 32.86 53.5068M39.4733 36.6401V39.1768M39.4733 57.4301V59.9768M24.19 14.8101C23.5 13.8101 22.5033 12.4501 24.5633 12.1434C26.68 11.8234 28.8767 13.2701 31.03 13.2434C32.9733 13.2134 33.9633 12.3501 35.03 11.1167C36.15 9.82008 37.8833 6.66675 40 6.66675C42.1167 6.66675 43.85 9.82008 44.97 11.1167C46.0367 12.3501 47.0267 13.2167 48.97 13.2401C51.1233 13.2734 53.32 11.8234 55.4367 12.1401C57.4967 12.4501 56.5 13.8067 55.81 14.8067L52.7033 19.3367C51.37 21.2701 50.7067 22.2367 49.3133 22.7867C47.92 23.3367 46.1233 23.3334 42.5267 23.3334H37.4733C33.8733 23.3334 32.0767 23.3334 30.6867 22.7867C29.2967 22.2401 28.63 21.2667 27.2967 19.3334L24.19 14.8101Z" stroke="white" stroke-width="1.5" stroke-linecap="round" stroke-linejoin="round"/>
</svg>
