<svg width="40" height="40" viewBox="0 0 40 40" fill="none" xmlns="http://www.w3.org/2000/svg">
<path d="M20 20C18.1666 20 16.5972 19.3472 15.2916 18.0416C13.9861 16.7361 13.3333 15.1666 13.3333 13.3333C13.3333 11.5 13.9861 9.93052 15.2916 8.62496C16.5972 7.3194 18.1666 6.66663 20 6.66663C21.8333 6.66663 23.4027 7.3194 24.7083 8.62496C26.0138 9.93052 26.6666 11.5 26.6666 13.3333C26.6666 15.1666 26.0138 16.7361 24.7083 18.0416C23.4027 19.3472 21.8333 20 20 20ZM6.66663 33.3333V28.6666C6.66663 27.7222 6.90996 26.8544 7.39663 26.0633C7.88329 25.2722 8.52885 24.6677 9.33329 24.25C11.0555 23.3888 12.8055 22.7433 14.5833 22.3133C16.3611 21.8833 18.1666 21.6677 20 21.6666C21.8333 21.6655 23.6388 21.8811 25.4166 22.3133C27.1944 22.7455 28.9444 23.3911 30.6666 24.25C31.4722 24.6666 32.1183 25.2711 32.605 26.0633C33.0916 26.8555 33.3344 27.7233 33.3333 28.6666V33.3333H6.66663ZM9.99996 30H30V28.6666C30 28.3611 29.9238 28.0833 29.7716 27.8333C29.6194 27.5833 29.4177 27.3888 29.1666 27.25C27.6666 26.5 26.1527 25.9377 24.625 25.5633C23.0972 25.1888 21.5555 25.0011 20 25C18.4444 24.9988 16.9027 25.1866 15.375 25.5633C13.8472 25.94 12.3333 26.5022 10.8333 27.25C10.5833 27.3888 10.3816 27.5833 10.2283 27.8333C10.075 28.0833 9.99885 28.3611 9.99996 28.6666V30ZM20 16.6666C20.9166 16.6666 21.7016 16.3405 22.355 15.6883C23.0083 15.0361 23.3344 14.2511 23.3333 13.3333C23.3322 12.4155 23.0061 11.6311 22.355 10.98C21.7038 10.3288 20.9188 10.0022 20 9.99996C19.0811 9.99774 18.2966 10.3244 17.6466 10.98C16.9966 11.6355 16.67 12.42 16.6666 13.3333C16.6633 14.2466 16.99 15.0316 17.6466 15.6883C18.3033 16.345 19.0877 16.6711 20 16.6666Z" fill="black"/>
</svg>
