<svg width="40" height="40" viewBox="0 0 40 40" fill="none" xmlns="http://www.w3.org/2000/svg">
<path d="M20 20.0001C18.1666 20.0001 16.5972 19.3473 15.2916 18.0417C13.9861 16.7362 13.3333 15.1667 13.3333 13.3334C13.3333 11.5001 13.9861 9.93064 15.2916 8.62508C16.5972 7.31953 18.1666 6.66675 20 6.66675C21.8333 6.66675 23.4027 7.31953 24.7083 8.62508C26.0138 9.93064 26.6666 11.5001 26.6666 13.3334C26.6666 15.1667 26.0138 16.7362 24.7083 18.0417C23.4027 19.3473 21.8333 20.0001 20 20.0001ZM6.66663 33.3334V28.6667C6.66663 27.7223 6.90996 26.8545 7.39663 26.0634C7.88329 25.2723 8.52885 24.6679 9.33329 24.2501C11.0555 23.389 12.8055 22.7434 14.5833 22.3134C16.3611 21.8834 18.1666 21.6679 20 21.6667C21.8333 21.6656 23.6388 21.8812 25.4166 22.3134C27.1944 22.7456 28.9444 23.3912 30.6666 24.2501C31.4722 24.6667 32.1183 25.2712 32.605 26.0634C33.0916 26.8556 33.3344 27.7234 33.3333 28.6667V33.3334H6.66663ZM9.99996 30.0001H30V28.6667C30 28.3612 29.9238 28.0834 29.7716 27.8334C29.6194 27.5834 29.4177 27.389 29.1666 27.2501C27.6666 26.5001 26.1527 25.9379 24.625 25.5634C23.0972 25.189 21.5555 25.0012 20 25.0001C18.4444 24.999 16.9027 25.1867 15.375 25.5634C13.8472 25.9401 12.3333 26.5023 10.8333 27.2501C10.5833 27.389 10.3816 27.5834 10.2283 27.8334C10.075 28.0834 9.99885 28.3612 9.99996 28.6667V30.0001ZM20 16.6667C20.9166 16.6667 21.7016 16.3406 22.355 15.6884C23.0083 15.0362 23.3344 14.2512 23.3333 13.3334C23.3322 12.4156 23.0061 11.6312 22.355 10.9801C21.7038 10.329 20.9188 10.0023 20 10.0001C19.0811 9.99786 18.2966 10.3245 17.6466 10.9801C16.9966 11.6356 16.67 12.4201 16.6666 13.3334C16.6633 14.2467 16.99 15.0317 17.6466 15.6884C18.3033 16.3451 19.0877 16.6712 20 16.6667Z" fill="black"/>
</svg>
