<svg width="27" height="27" viewBox="0 0 27 27" fill="none" xmlns="http://www.w3.org/2000/svg">
<g clip-path="url(#clip0_21_19)">
<path fill-rule="evenodd" clip-rule="evenodd" d="M14.2954 17.6704C14.0844 17.8813 13.7983 17.9997 13.5 17.9997C13.2017 17.9997 12.9156 17.8813 12.7046 17.6704L6.34049 11.3062C6.23304 11.2025 6.14734 11.0783 6.08838 10.9411C6.02941 10.8038 5.99838 10.6562 5.99708 10.5068C5.99578 10.3574 6.02425 10.2093 6.08081 10.071C6.13738 9.93278 6.22092 9.80717 6.32654 9.70154C6.43217 9.59592 6.55778 9.51238 6.69604 9.45581C6.8343 9.39925 6.98244 9.37078 7.13182 9.37208C7.28119 9.37338 7.42881 9.40441 7.56607 9.46338C7.70332 9.52234 7.82746 9.60804 7.93124 9.71549L13.5 15.2842L19.0687 9.71549C19.2809 9.51056 19.5651 9.39717 19.8601 9.39973C20.155 9.40229 20.4372 9.52061 20.6458 9.72919C20.8544 9.93778 20.9727 10.2199 20.9752 10.5149C20.9778 10.8099 20.8644 11.0941 20.6595 11.3062L14.2954 17.6704Z" fill="black"/>
</g>
<defs>
<clipPath id="clip0_21_19">
<rect width="27" height="27" fill="white"/>
</clipPath>
</defs>
</svg>
