<svg width="80" height="80" viewBox="0 0 80 80" fill="none" xmlns="http://www.w3.org/2000/svg">
<g clip-path="url(#clip0_30_7)">
<path fill-rule="evenodd" clip-rule="evenodd" d="M40 6.66666C47.9565 6.66666 55.5871 9.82736 61.2132 15.4535C66.8393 21.0795 70 28.7102 70 36.6667C70 46.9133 64.4133 55.3 58.5267 61.3167C55.5856 64.2902 52.3764 66.9861 48.94 69.37L47.52 70.3367L46.8533 70.78L45.5967 71.58L44.4767 72.2633L43.09 73.07C42.1488 73.6072 41.0838 73.8898 40 73.8898C38.9162 73.8898 37.8512 73.6072 36.91 73.07L35.5233 72.2633L33.79 71.1967L33.15 70.78L31.7833 69.87C28.0761 67.3617 24.623 64.497 21.4733 61.3167C15.5867 55.2967 10 46.9133 10 36.6667C10 28.7102 13.1607 21.0795 18.7868 15.4535C24.4129 9.82736 32.0435 6.66666 40 6.66666ZM40 13.3333C33.8116 13.3333 27.8767 15.7916 23.5008 20.1675C19.125 24.5433 16.6667 30.4783 16.6667 36.6667C16.6667 44.4067 20.9067 51.2 26.2367 56.6533C28.5284 58.9733 31.0055 61.1026 33.6433 63.02L35.17 64.1067C35.6633 64.4511 36.1378 64.7711 36.5933 65.0667L37.8933 65.9L39.0367 66.5967L40 67.16L41.5167 66.2633L42.74 65.4967C43.3911 65.0833 44.0878 64.62 44.83 64.1067L46.3567 63.02C48.9945 61.1026 51.4716 58.9733 53.7633 56.6533C59.0933 51.2033 63.3333 44.4067 63.3333 36.6667C63.3333 30.4783 60.875 24.5433 56.4992 20.1675C52.1233 15.7916 46.1884 13.3333 40 13.3333ZM40 23.3333C43.5362 23.3333 46.9276 24.7381 49.4281 27.2386C51.9286 29.7391 53.3333 33.1304 53.3333 36.6667C53.3333 40.2029 51.9286 43.5943 49.4281 46.0947C46.9276 48.5952 43.5362 50 40 50C36.4638 50 33.0724 48.5952 30.5719 46.0947C28.0714 43.5943 26.6667 40.2029 26.6667 36.6667C26.6667 33.1304 28.0714 29.7391 30.5719 27.2386C33.0724 24.7381 36.4638 23.3333 40 23.3333ZM40 30C38.2319 30 36.5362 30.7024 35.286 31.9526C34.0357 33.2029 33.3333 34.8985 33.3333 36.6667C33.3333 38.4348 34.0357 40.1305 35.286 41.3807C36.5362 42.6309 38.2319 43.3333 40 43.3333C41.7681 43.3333 43.4638 42.6309 44.714 41.3807C45.9643 40.1305 46.6667 38.4348 46.6667 36.6667C46.6667 34.8985 45.9643 33.2029 44.714 31.9526C43.4638 30.7024 41.7681 30 40 30Z" fill="white"/>
</g>
<defs>
<clipPath id="clip0_30_7">
<rect width="80" height="80" fill="white"/>
</clipPath>
</defs>
</svg>
