<svg width="80" height="80" viewBox="0 0 80 80" fill="none" xmlns="http://www.w3.org/2000/svg">
<path d="M69.4907 49.5188L54.7688 42.9219L54.7282 42.9031C53.9639 42.5762 53.1302 42.4451 52.3024 42.5215C51.4747 42.5978 50.6791 42.8794 49.9875 43.3406C49.9061 43.3943 49.8278 43.4528 49.7532 43.5156L42.1469 50C37.3282 47.6594 32.3532 42.7219 30.0125 37.9656L36.5063 30.2438C36.5688 30.1656 36.6282 30.0875 36.6844 30.0031C37.1357 29.3135 37.4096 28.5229 37.4815 27.7018C37.5535 26.8807 37.4214 26.0546 37.0969 25.2969V25.2594L30.4813 10.5125C30.0523 9.52271 29.3148 8.69818 28.3787 8.162C27.4427 7.62583 26.3583 7.40676 25.2875 7.53751C21.0531 8.09472 17.1662 10.1743 14.3529 13.3878C11.5397 16.6013 9.99237 20.729 10 25C10 49.8125 30.1875 70 55 70C59.271 70.0077 63.3987 68.4604 66.6122 65.6471C69.8258 62.8338 71.9053 58.947 72.4625 54.7125C72.5935 53.6421 72.3749 52.558 71.8393 51.622C71.3037 50.686 70.4799 49.9482 69.4907 49.5188ZM55 65C44.3949 64.9884 34.2275 60.7704 26.7285 53.2715C19.2296 45.7725 15.0116 35.6051 15 25C14.9883 21.9484 16.0877 18.9969 18.093 16.6966C20.0982 14.3963 22.8722 12.9046 25.8969 12.5C25.8957 12.5125 25.8957 12.525 25.8969 12.5375L32.4594 27.225L26 34.9563C25.9343 35.0316 25.8748 35.1121 25.8219 35.1969C25.3516 35.9185 25.0758 36.7494 25.021 37.6089C24.9663 38.4685 25.1345 39.3277 25.5094 40.1031C28.3407 45.8938 34.175 51.6844 40.0282 54.5125C40.8093 54.8839 41.6734 55.0463 42.5361 54.9839C43.3988 54.9214 44.2305 54.6363 44.95 54.1563C45.0304 54.1024 45.1076 54.044 45.1813 53.9813L52.7782 47.5L67.4657 54.0781H67.5C67.1004 57.1071 65.6109 59.8867 63.3102 61.8969C61.0095 63.9071 58.0552 65.0103 55 65Z" fill="white"/>
</svg>
