<svg width="80" height="80" viewBox="0 0 80 80" fill="none" xmlns="http://www.w3.org/2000/svg">
<path d="M35.7312 48.2311L65.7312 18.2311C65.9635 17.9989 66.2393 17.8146 66.5427 17.6889C66.8462 17.5632 67.1715 17.4985 67.5 17.4985C67.8285 17.4985 68.1537 17.5632 68.4572 17.6889C68.7607 17.8146 69.0365 17.9989 69.2687 18.2311C69.501 18.4634 69.6853 18.7392 69.811 19.0427C69.9367 19.3461 70.0014 19.6714 70.0014 19.9999C70.0014 20.3284 69.9367 20.6537 69.811 20.9571C69.6853 21.2606 69.501 21.5364 69.2687 21.7687L39.2687 51.7687C39.0365 52.0009 38.7607 52.1852 38.4572 52.3109C38.1537 52.4366 37.8285 52.5013 37.5 52.5013C37.1715 52.5013 36.8462 52.4366 36.5427 52.3109C36.2393 52.1852 35.9635 52.0009 35.7312 51.7687C35.499 51.5364 35.3147 51.2606 35.189 50.9571C35.0633 50.6537 34.9986 50.3284 34.9986 49.9999C34.9986 49.6714 35.0633 49.3461 35.189 49.0427C35.3147 48.7392 35.499 48.4634 35.7312 48.2311ZM40 27.4999C42.1716 27.4971 44.3291 27.8486 46.3875 28.5405C46.7 28.6513 47.0315 28.6989 47.3625 28.6803C47.6936 28.6618 48.0177 28.5776 48.3159 28.4326C48.6141 28.2877 48.8805 28.0848 49.0996 27.8359C49.3186 27.587 49.486 27.297 49.5919 26.9828C49.6978 26.6686 49.7402 26.3364 49.7165 26.0057C49.6928 25.6749 49.6036 25.3522 49.454 25.0563C49.3044 24.7604 49.0974 24.4972 48.8451 24.282C48.5928 24.0668 48.3002 23.904 47.9844 23.803C44.0004 22.4599 39.742 22.1432 35.6032 22.8823C31.4643 23.6214 27.5787 25.3923 24.3058 28.0313C21.0329 30.6702 18.4784 34.092 16.8785 37.98C15.2787 41.868 14.6853 46.0967 15.1531 50.2749C15.2207 50.886 15.5112 51.4507 15.9689 51.8612C16.4266 52.2716 17.0196 52.499 17.6344 52.4999C17.725 52.4999 17.8187 52.4999 17.9125 52.4843C18.5713 52.4112 19.1742 52.0795 19.5885 51.562C20.0028 51.0446 20.1947 50.3838 20.1219 49.7249C20.0406 48.986 19.9999 48.2432 20 47.4999C20.0058 42.1973 22.1148 37.1136 25.8643 33.3642C29.6137 29.6147 34.6974 27.5057 40 27.4999ZM71.1687 31.5624C71.019 31.2702 70.8131 31.0104 70.5629 30.7978C70.3127 30.5851 70.023 30.4239 69.7105 30.3232C69.398 30.2225 69.0687 30.1843 68.7414 30.2109C68.4141 30.2375 68.0953 30.3282 67.8031 30.478C67.5109 30.6278 67.2511 30.8337 67.0385 31.0839C66.8258 31.3341 66.6646 31.6237 66.5639 31.9363C66.4632 32.2488 66.425 32.5781 66.4516 32.9054C66.4782 33.2326 66.5689 33.5515 66.7187 33.8436C68.5683 37.4758 69.6606 41.4458 69.9292 45.5129C70.1978 49.58 69.6371 53.6592 68.2812 57.503L11.6875 57.4812C10.1085 52.955 9.63433 48.117 10.3045 43.3704C10.9746 38.6238 12.7697 34.1061 15.54 30.194C18.3104 26.2819 21.9757 23.0887 26.2305 20.8805C30.4853 18.6724 35.2063 17.5133 40 17.4999H40.275C44.931 17.5292 49.5148 18.6532 53.6562 20.7811C53.9492 20.9424 54.2716 21.0432 54.6043 21.0777C54.9369 21.1121 55.2731 21.0794 55.5929 20.9816C55.9127 20.8838 56.2096 20.7228 56.4661 20.5082C56.7226 20.2935 56.9334 20.0296 57.086 19.7321C57.2387 19.4345 57.3301 19.1093 57.3548 18.7758C57.3795 18.4423 57.3371 18.1072 57.23 17.7904C57.1229 17.4736 56.9533 17.1814 56.7313 16.9313C56.5093 16.6812 56.2394 16.4782 55.9375 16.3343C49.703 13.1409 42.6537 11.8917 35.7015 12.7483C28.7494 13.6049 22.2141 16.5278 16.9412 21.139C11.6683 25.7502 7.90035 31.8374 6.1247 38.6134C4.34905 45.3894 4.64743 52.5422 6.98124 59.1468C7.32599 60.1253 7.96534 60.973 8.81142 61.5735C9.6575 62.1739 10.6688 62.4975 11.7062 62.4999H68.2906C69.3276 62.5005 70.3391 62.1788 71.185 61.5791C72.031 60.9795 72.6696 60.1317 73.0125 59.153C74.5893 54.6684 75.2389 49.9102 74.9219 45.167C74.605 40.4238 73.3281 35.7943 71.1687 31.5593V31.5624Z" fill="#FFFCFC"/>
</svg>
