<svg width="25" height="25" viewBox="0 0 25 25" fill="none" xmlns="http://www.w3.org/2000/svg">
<path fill-rule="evenodd" clip-rule="evenodd" d="M13.0302 1.97007C12.8895 1.82962 12.6989 1.75073 12.5002 1.75073C12.3014 1.75073 12.1108 1.82962 11.9702 1.97007L6.97017 6.97007C6.89648 7.03873 6.83738 7.12154 6.79639 7.21353C6.75539 7.30553 6.73335 7.40485 6.73157 7.50555C6.7298 7.60625 6.74832 7.70628 6.78604 7.79967C6.82376 7.89306 6.87991 7.97789 6.95113 8.04911C7.02235 8.12033 7.10718 8.17647 7.20057 8.21419C7.29396 8.25192 7.39399 8.27044 7.49469 8.26866C7.59539 8.26689 7.6947 8.24484 7.7867 8.20385C7.8787 8.16286 7.9615 8.10376 8.03017 8.03007L11.7502 4.31007V15.8334C11.7502 16.0323 11.8292 16.2231 11.9698 16.3637C12.1105 16.5044 12.3013 16.5834 12.5002 16.5834C12.6991 16.5834 12.8898 16.5044 13.0305 16.3637C13.1711 16.2231 13.2502 16.0323 13.2502 15.8334V4.31007L16.9702 8.03007C17.0388 8.10376 17.1216 8.16286 17.2136 8.20385C17.3056 8.24484 17.4049 8.26689 17.5056 8.26866C17.6063 8.27044 17.7064 8.25192 17.7998 8.21419C17.8932 8.17647 17.978 8.12033 18.0492 8.04911C18.1204 7.97789 18.1766 7.89306 18.2143 7.79967C18.252 7.70628 18.2705 7.60625 18.2688 7.50555C18.267 7.40485 18.2449 7.30553 18.2039 7.21353C18.163 7.12154 18.1039 7.03873 18.0302 6.97007L13.0302 1.97007ZM4.16683 16.6667C4.38785 16.6667 4.59981 16.7545 4.75609 16.9108C4.91237 17.0671 5.00017 17.2791 5.00017 17.5001V20.0001C5.00017 20.9234 5.7435 21.6667 6.66017 21.6667H18.3352C18.7769 21.6663 19.2004 21.4905 19.5126 21.178C19.8248 20.8655 20.0002 20.4418 20.0002 20.0001V17.5001C20.0002 17.2791 20.088 17.0671 20.2442 16.9108C20.4005 16.7545 20.6125 16.6667 20.8335 16.6667C21.0545 16.6667 21.2665 16.7545 21.4228 16.9108C21.579 17.0671 21.6668 17.2791 21.6668 17.5001V20.0001C21.6668 20.8838 21.3159 21.7314 20.6911 22.3565C20.0663 22.9816 19.2189 23.333 18.3352 23.3334H6.66017C6.2228 23.3332 5.78977 23.2468 5.38582 23.0791C4.98188 22.9114 4.61494 22.6658 4.30599 22.3562C3.99703 22.0466 3.75212 21.6792 3.58526 21.2749C3.41839 20.8706 3.33284 20.4374 3.3335 20.0001V17.5001C3.3335 17.2791 3.4213 17.0671 3.57758 16.9108C3.73386 16.7545 3.94582 16.6667 4.16683 16.6667Z" fill="#F8F8F8"/>
</svg>
