<svg width="27" height="25" viewBox="0 0 27 25" fill="none" xmlns="http://www.w3.org/2000/svg">
<g clip-path="url(#clip0_15_168)">
<path d="M26.9585 2.44505C26.9465 2.28181 26.8828 2.12547 26.7755 1.9955C26.6681 1.86554 26.5218 1.76772 26.3548 1.71422C26.1878 1.66073 26.0075 1.65393 25.8364 1.69468C25.6653 1.73543 25.5109 1.82193 25.3925 1.94338C24.8039 2.55456 24.0378 2.99602 23.1857 3.21505C22.0366 2.21877 20.5209 1.66513 18.9467 1.66671C17.2573 1.66804 15.6377 2.29046 14.4439 3.39714C13.25 4.50382 12.5796 6.00418 12.5801 7.56838V8.30171C7.19628 7.91671 4.31988 4.12838 3.54048 2.20838C3.47913 2.05622 3.37111 1.92399 3.22968 1.82792C3.08825 1.73185 2.91958 1.67614 2.74442 1.66765C2.56926 1.65915 2.39523 1.69823 2.24373 1.78008C2.09223 1.86193 1.96987 1.983 1.89168 2.12838C0.00708213 5.62171 -0.282718 9.01171 1.08708 11.8984C2.28588 14.4267 4.69788 16.44 8.11788 17.775C6.56448 18.7934 3.94908 20 0.899882 20C0.706633 19.9998 0.518439 20.0572 0.363142 20.1637C0.207844 20.2702 0.0936904 20.4201 0.0375682 20.5914C-0.0185541 20.7626 -0.0136642 20.946 0.0515144 21.1144C0.116693 21.2829 0.238699 21.4274 0.399482 21.5267C3.32448 23.3334 6.38988 23.3334 9.23748 23.3334H9.32388C18.0737 23.3334 25.1639 16.7567 25.1639 8.64671V7.84838C25.8173 7.23171 26.3267 6.60338 26.6399 5.78838C26.9873 4.87838 27.0575 3.82505 26.9585 2.44505Z" fill="#4154FF"/>
</g>
<defs>
<clipPath id="clip0_15_168">
<rect width="27" height="25" fill="white"/>
</clipPath>
</defs>
</svg>
