<svg width="78" height="53" viewBox="0 0 78 53" fill="none" xmlns="http://www.w3.org/2000/svg">
<path d="M77.102 18.027L69.1238 2.08947C68.9037 1.6489 68.5989 1.25601 68.227 0.933231C67.855 0.610454 67.423 0.364115 66.9558 0.208283C66.4886 0.0524515 65.9953 -0.00982133 65.504 0.0250206C65.0127 0.0598625 64.5331 0.191137 64.0926 0.411347L55.8989 4.4926L39.0614 0.0425968C38.8566 -0.0117301 38.6411 -0.0117301 38.4364 0.0425968L21.5989 4.4926L13.4051 0.395722C12.9646 0.175512 12.485 0.0442377 11.9937 0.00939581C11.5024 -0.0254461 11.0091 0.0368268 10.5419 0.192659C10.0747 0.348491 9.64274 0.594828 9.27075 0.917605C8.89875 1.24038 8.59399 1.63327 8.37385 2.07385L0.395722 18.027C0.175512 18.4675 0.0442377 18.9471 0.00939579 19.4384C-0.0254461 19.9297 0.036827 20.423 0.192659 20.8902C0.348491 21.3574 0.594829 21.7893 0.917606 22.1613C1.24038 22.5333 1.63328 22.8381 2.07385 23.0582L10.602 27.3238L28.0239 39.7676C28.1508 39.8586 28.294 39.9244 28.4457 39.9613L48.4457 44.9613C48.6538 45.0158 48.8725 45.0157 49.0805 44.961C49.2885 44.9062 49.4789 44.7987 49.6332 44.6488L66.9895 27.2926L75.427 23.0738C75.8675 22.8537 76.2604 22.5489 76.5832 22.1769C76.906 21.805 77.1523 21.373 77.3082 20.9058C77.464 20.4386 77.5263 19.9453 77.4914 19.454C77.4566 18.9627 77.3253 18.4831 77.1051 18.0426L77.102 18.027ZM61.1645 29.5738L49.5395 20.2613C49.2988 20.0683 48.9952 19.971 48.6871 19.9883C48.3791 20.0056 48.0883 20.1363 47.8707 20.3551C41.7801 26.4926 34.952 25.702 30.5926 22.9176C30.4321 22.8146 30.2969 22.6769 30.1968 22.5147C30.0967 22.3524 30.0344 22.1697 30.0145 21.9801C29.9931 21.7976 30.0132 21.6126 30.0733 21.4389C30.1334 21.2652 30.2318 21.1073 30.3614 20.977L44.2551 7.49885H55.477L64.727 26.002L61.1645 29.5738ZM2.56447 20.0988C2.46454 19.7893 2.4892 19.453 2.63322 19.1613L10.6238 3.1926C10.7264 2.98623 10.884 2.81222 11.0792 2.68979C11.2744 2.56736 11.4997 2.50128 11.7301 2.49885C11.9234 2.50002 12.1138 2.54602 12.2863 2.63322L19.7863 6.38322L10.6895 24.5738L3.18947 20.8238C3.04277 20.75 2.91207 20.6479 2.80483 20.5235C2.69759 20.3991 2.61591 20.2548 2.56447 20.0988ZM48.3645 42.3645L29.2832 37.5926L12.8457 25.852L22.327 6.87385L38.7489 2.5426L48.0364 4.99885H43.7489C43.4233 4.99854 43.1105 5.12523 42.877 5.35197L28.5957 19.2051C28.1983 19.6026 27.8953 20.0843 27.7091 20.6146C27.5229 21.145 27.4583 21.7104 27.5201 22.2691C27.582 22.8278 27.7686 23.3654 28.0662 23.8422C28.3638 24.319 28.7648 24.7229 29.2395 25.0238C35.452 28.9957 43.0301 28.1488 48.8207 22.8957L59.3739 31.352L48.3645 42.3645ZM74.927 20.0988C74.8755 20.2548 74.7939 20.3991 74.6866 20.5235C74.5794 20.6479 74.4487 20.75 74.302 20.8238L66.802 24.5738L57.7113 6.38322L65.2113 2.63322C65.5064 2.48955 65.8461 2.46769 66.1572 2.57234C66.4682 2.677 66.7256 2.89978 66.8739 3.1926L74.852 19.1457C75.0044 19.4401 75.0336 19.7829 74.9332 20.0988H74.927ZM38.7301 51.5613C38.6607 51.83 38.5039 52.068 38.2844 52.2377C38.0649 52.4075 37.7951 52.4993 37.5176 52.4988C37.4123 52.4996 37.3073 52.487 37.2051 52.4613L24.1801 49.202C24.0275 49.1647 23.8833 49.0989 23.7551 49.0082L15.5238 43.1238C15.2541 42.9311 15.0719 42.6392 15.0174 42.3122C14.9629 41.9851 15.0405 41.6499 15.2332 41.3801C15.4259 41.1103 15.7179 40.9281 16.0449 40.8736C16.3719 40.8191 16.7072 40.8968 16.977 41.0895L25.0145 46.8301L37.827 50.0332C37.987 50.0736 38.1374 50.1454 38.2695 50.2442C38.4017 50.343 38.5129 50.4671 38.5969 50.6091C38.6808 50.7512 38.7358 50.9085 38.7587 51.0719C38.7816 51.2354 38.7718 51.4017 38.7301 51.5613Z" fill="white"/>
</svg>
