<svg width="25" height="25" viewBox="0 0 25 25" fill="none" xmlns="http://www.w3.org/2000/svg">
<path fill-rule="evenodd" clip-rule="evenodd" d="M20.8333 0C21.9384 0 22.9982 0.438987 23.7796 1.22039C24.561 2.00179 25 3.0616 25 4.16667V20.8333C25 21.9384 24.561 22.9982 23.7796 23.7796C22.9982 24.561 21.9384 25 20.8333 25H4.16667C3.0616 25 2.00179 24.561 1.22039 23.7796C0.438987 22.9982 0 21.9384 0 20.8333V4.16667C0 3.0616 0.438987 2.00179 1.22039 1.22039C2.00179 0.438987 3.0616 0 4.16667 0H20.8333ZM6.94444 9.72222C6.57609 9.72222 6.22282 9.86855 5.96235 10.129C5.70188 10.3895 5.55556 10.7428 5.55556 11.1111V18.0556C5.55556 18.4239 5.70188 18.7772 5.96235 19.0376C6.22282 19.2981 6.57609 19.4444 6.94444 19.4444C7.3128 19.4444 7.66607 19.2981 7.92654 19.0376C8.187 18.7772 8.33333 18.4239 8.33333 18.0556V11.1111C8.33333 10.7428 8.187 10.3895 7.92654 10.129C7.66607 9.86855 7.3128 9.72222 6.94444 9.72222ZM11.1111 8.33333C10.7428 8.33333 10.3895 8.47966 10.129 8.74013C9.86855 9.0006 9.72222 9.35387 9.72222 9.72222V18.0556C9.72222 18.4239 9.86855 18.7772 10.129 19.0376C10.3895 19.2981 10.7428 19.4444 11.1111 19.4444C11.4795 19.4444 11.8327 19.2981 12.0932 19.0376C12.3537 18.7772 12.5 18.4239 12.5 18.0556V12.9722C12.9236 12.4944 13.6389 11.9333 14.4347 11.5931C14.8972 11.3958 15.5931 11.3153 16.0764 11.4681C16.2367 11.5087 16.3795 11.6004 16.4833 11.7292C16.5556 11.8264 16.6667 12.0431 16.6667 12.5V18.0556C16.6667 18.4239 16.813 18.7772 17.0735 19.0376C17.3339 19.2981 17.6872 19.4444 18.0556 19.4444C18.4239 19.4444 18.7772 19.2981 19.0376 19.0376C19.2981 18.7772 19.4444 18.4239 19.4444 18.0556V12.5C19.4444 11.5694 19.2083 10.7417 18.7167 10.0778C18.2642 9.47577 17.6311 9.03434 16.9097 8.81806C15.6569 8.425 14.2694 8.64305 13.3431 9.04028C13.0465 9.16784 12.7576 9.31253 12.4778 9.47361C12.4196 9.15359 12.2509 8.86416 12.0011 8.65578C11.7514 8.4474 11.4364 8.33328 11.1111 8.33333ZM6.94444 5.55556C6.57609 5.55556 6.22282 5.70188 5.96235 5.96235C5.70188 6.22282 5.55556 6.57609 5.55556 6.94444C5.55556 7.3128 5.70188 7.66607 5.96235 7.92654C6.22282 8.187 6.57609 8.33333 6.94444 8.33333C7.3128 8.33333 7.66607 8.187 7.92654 7.92654C8.187 7.66607 8.33333 7.3128 8.33333 6.94444C8.33333 6.57609 8.187 6.22282 7.92654 5.96235C7.66607 5.70188 7.3128 5.55556 6.94444 5.55556Z" fill="#3651FF"/>
</svg>
