<svg width="20" height="20" viewBox="0 0 20 20" fill="none" xmlns="http://www.w3.org/2000/svg">
<path d="M0 18.5714C0 18.1925 0.0877975 17.8292 0.244078 17.5613C0.400358 17.2934 0.61232 17.1429 0.833333 17.1429H5.83333C6.05435 17.1429 6.26631 17.2934 6.42259 17.5613C6.57887 17.8292 6.66667 18.1925 6.66667 18.5714C6.66667 18.9503 6.57887 19.3137 6.42259 19.5816C6.26631 19.8495 6.05435 20 5.83333 20H0.833333C0.61232 20 0.400358 19.8495 0.244078 19.5816C0.0877975 19.3137 0 18.9503 0 18.5714ZM0 10C0 9.62112 0.0877975 9.25776 0.244078 8.98985C0.400358 8.72194 0.61232 8.57143 0.833333 8.57143H12.5C12.721 8.57143 12.933 8.72194 13.0893 8.98985C13.2455 9.25776 13.3333 9.62112 13.3333 10C13.3333 10.3789 13.2455 10.7422 13.0893 11.0102C12.933 11.2781 12.721 11.4286 12.5 11.4286H0.833333C0.61232 11.4286 0.400358 11.2781 0.244078 11.0102C0.0877975 10.7422 0 10.3789 0 10ZM0 1.42857C0 1.04969 0.0877975 0.686328 0.244078 0.418419C0.400358 0.15051 0.61232 0 0.833333 0H19.1667C19.3877 0 19.5996 0.15051 19.7559 0.418419C19.9122 0.686328 20 1.04969 20 1.42857C20 1.80745 19.9122 2.17081 19.7559 2.43872C19.5996 2.70663 19.3877 2.85714 19.1667 2.85714H0.833333C0.61232 2.85714 0.400358 2.70663 0.244078 2.43872C0.0877975 2.17081 0 1.80745 0 1.42857Z" fill="black"/>
</svg>
