<svg width="90" height="88" viewBox="0 0 90 88" fill="none" xmlns="http://www.w3.org/2000/svg">
<path d="M90 44.4634C90 48.4849 89.4727 52.3364 88.418 56.0181C87.3633 59.6997 85.8545 63.1689 83.8916 66.4258C81.9287 69.6826 79.585 72.6138 76.8604 75.2192C74.1357 77.8247 71.0889 80.0903 67.7197 82.0161C64.3506 83.9419 60.7617 85.4004 56.9531 86.3916C53.1445 87.3828 49.1602 87.9067 45 87.9634C40.8398 87.9634 36.8555 87.4536 33.0469 86.4341C29.2383 85.4146 25.6494 83.9561 22.2803 82.0586C18.9111 80.1611 15.8789 77.8955 13.1836 75.2617C10.4883 72.6279 8.14453 69.6826 6.15234 66.4258C4.16016 63.1689 2.65137 59.6997 1.62598 56.0181C0.600586 52.3364 0.0585938 48.4849 0 44.4634C0 40.4702 0.527344 36.6187 1.58203 32.9087C2.63672 29.1987 4.14551 25.7295 6.1084 22.501C8.07129 19.2725 10.415 16.3413 13.1396 13.7075C15.8643 11.0737 18.9111 8.80811 22.2803 6.91064C25.6494 5.01318 29.2383 3.55469 33.0469 2.53516C36.8555 1.51562 40.8398 0.991699 45 0.963379C49.1309 0.963379 53.1152 1.47314 56.9531 2.49268C60.791 3.51221 64.3799 4.9707 67.7197 6.86816C71.0596 8.76562 74.0918 11.0312 76.8164 13.665C79.541 16.2988 81.8848 19.2441 83.8477 22.501C85.8105 25.7578 87.3193 29.2271 88.374 32.9087C89.4287 36.5903 89.9707 40.4419 90 44.4634ZM45 82.5259C48.6035 82.5259 52.0752 82.0728 55.415 81.1665C58.7549 80.2603 61.8896 78.9858 64.8193 77.3433C67.749 75.7007 70.415 73.7041 72.8174 71.3535C75.2197 69.0029 77.2705 66.4399 78.9697 63.6646C80.6689 60.8892 82.002 57.8589 82.9688 54.5737C83.9355 51.2886 84.4043 47.9185 84.375 44.4634C84.375 40.98 83.9062 37.624 82.9688 34.3955C82.0312 31.167 80.7129 28.1367 79.0137 25.3047C77.3145 22.4727 75.249 19.8955 72.8174 17.5732C70.3857 15.251 67.7344 13.2686 64.8633 11.626C61.9922 9.9834 58.8574 8.69482 55.459 7.76025C52.0605 6.82568 48.5742 6.37256 45 6.40088C41.3672 6.40088 37.8809 6.854 34.541 7.76025C31.2012 8.6665 28.0811 9.94092 25.1807 11.5835C22.2803 13.2261 19.6143 15.2227 17.1826 17.5732C14.751 19.9238 12.7002 22.4868 11.0303 25.2622C9.36035 28.0376 8.02734 31.0679 7.03125 34.353C6.03516 37.6382 5.56641 41.0083 5.625 44.4634C5.625 47.9751 6.09375 51.3452 7.03125 54.5737C7.96875 57.8022 9.28711 60.8184 10.9863 63.6221C12.6855 66.4258 14.751 69.0029 17.1826 71.3535C19.6143 73.7041 22.2656 75.6865 25.1367 77.3008C28.0078 78.915 31.1426 80.2036 34.541 81.1665C37.9395 82.1294 41.4258 82.5825 45 82.5259ZM47.5488 19.9946H50.625V68.9321H45V30.4448C43.3301 31.4644 41.543 32.2432 39.6387 32.7812C37.7344 33.3193 35.7715 33.5884 33.75 33.5884V28.1509C36.7676 28.1509 39.4629 27.4287 41.8359 25.9844C44.209 24.54 46.1133 22.5435 47.5488 19.9946Z" fill="#D3B201"/>
</svg>
