<svg width="28" height="28" viewBox="0 0 28 28" fill="none" xmlns="http://www.w3.org/2000/svg">
<path d="M20.0114 17.6101H18.7467L18.2985 17.1778C19.9217 15.2952 20.8138 12.8917 20.8119 10.4059C20.8119 8.34785 20.2016 6.33597 19.0582 4.62472C17.9148 2.91347 16.2896 1.57971 14.3881 0.79211C12.4867 0.00450873 10.3944 -0.201564 8.37585 0.199952C6.35729 0.601468 4.50313 1.59254 3.04783 3.04783C1.59254 4.50313 0.601468 6.35729 0.199952 8.37585C-0.201564 10.3944 0.00450873 12.4867 0.79211 14.3881C1.57971 16.2896 2.91347 17.9148 4.62472 19.0582C6.33597 20.2016 8.34785 20.8119 10.4059 20.8119C12.9834 20.8119 15.3528 19.8674 17.1778 18.2985L17.6101 18.7467V20.0114L25.6146 28L28 25.6146L20.0114 17.6101ZM10.4059 17.6101C6.41967 17.6101 3.20183 14.3922 3.20183 10.4059C3.20183 6.41967 6.41967 3.20183 10.4059 3.20183C14.3922 3.20183 17.6101 6.41967 17.6101 10.4059C17.6101 14.3922 14.3922 17.6101 10.4059 17.6101Z" fill="black"/>
</svg>
