<svg width="160" height="160" viewBox="0 0 160 160" fill="none" xmlns="http://www.w3.org/2000/svg" xmlns:xlink="http://www.w3.org/1999/xlink">
<path d="M70,107.07L45,82.065L52.065,75L70,92.93L107.925,55L115,62.075L70,107.07Z" fill="#FFF3F3"/>
<path d="M80,10C66.155,10 52.622,14.105 41.11,21.797C29.599,29.489 20.627,40.421 15.328,53.212C10.03,66.003 8.644,80.078 11.345,93.656C14.046,107.235 20.713,119.708 30.503,129.497C40.292,139.287 52.765,145.954 66.344,148.655C79.922,151.356 93.997,149.97 106.788,144.672C119.579,139.373 130.511,130.401 138.203,118.89C145.895,107.378 150,93.845 150,80C150,61.435 142.625,43.63 129.497,30.503C116.37,17.375 98.565,10 80,10ZM80,140C68.133,140 56.533,136.481 46.666,129.888C36.799,123.295 29.108,113.925 24.567,102.961C20.026,91.997 18.838,79.933 21.153,68.295C23.468,56.656 29.182,45.965 37.574,37.574C45.965,29.182 56.656,23.468 68.295,21.153C79.933,18.838 91.997,20.026 102.961,24.567C113.925,29.108 123.295,36.799 129.888,46.666C136.481,56.533 140,68.133 140,80C140,95.913 133.679,111.174 122.426,122.426C111.174,133.679 95.913,140 80,140Z" fill="#FFF3F3"/>
</svg>
