<svg width="80" height="80" viewBox="0 0 80 80" fill="none" xmlns="http://www.w3.org/2000/svg" xmlns:xlink="http://www.w3.org/1999/xlink">
<path d="M66.517,22.234C61.272,16.989 54.59,13.418 47.316,11.971C40.042,10.524 32.502,11.266 25.649,14.105C18.797,16.943 12.94,21.749 8.82,27.916C4.699,34.083 2.5,41.333 2.5,48.75L2.5,62.5L25,62.5L25,57.5L7.5,57.5L7.5,48.75C7.5,30.83 22.08,16.25 40,16.25C57.92,16.25 72.5,30.83 72.5,48.75L72.5,57.5L55,57.5L55,62.5L77.5,62.5L77.5,48.75C77.513,43.824 76.55,38.943 74.664,34.392C72.779,29.84 70.01,25.708 66.517,22.234Z" fill="#000000"/>
<path d="M12.5,41.25L17.5,41.25L17.5,46.25L12.5,46.25L12.5,41.25ZM37.5,20L42.5,20L42.5,25L37.5,25L37.5,20ZM21.25,26.25L26.25,26.25L26.25,31.25L21.25,31.25L21.25,26.25ZM62.5,41.25L67.5,41.25L67.5,46.25L62.5,46.25L62.5,41.25ZM46.441,52.359L57.253,29.832L52.746,27.669L41.936,50.19C39.543,49.713 37.059,50.125 34.948,51.35C32.838,52.574 31.247,54.526 30.473,56.84C29.699,59.153 29.796,61.67 30.745,63.918C31.694,66.165 33.431,67.989 35.629,69.048C37.827,70.107 40.336,70.327 42.685,69.668C45.034,69.009 47.062,67.515 48.388,65.468C49.715,63.42 50.249,60.959 49.891,58.546C49.532,56.133 48.305,53.933 46.441,52.359ZM40,65C39.011,65 38.044,64.707 37.222,64.157C36.4,63.608 35.759,62.827 35.381,61.913C35.002,61 34.903,59.994 35.096,59.025C35.289,58.055 35.765,57.164 36.464,56.464C37.164,55.765 38.055,55.289 39.025,55.096C39.994,54.903 41,55.002 41.913,55.381C42.827,55.759 43.608,56.4 44.157,57.222C44.707,58.044 45,59.011 45,60C44.999,61.326 44.471,62.597 43.534,63.534C42.597,64.471 41.326,64.999 40,65Z" fill="#000000"/>
</svg>
