<svg width="124" height="138" viewBox="0 0 124 138" fill="none" xmlns="http://www.w3.org/2000/svg" xmlns:xlink="http://www.w3.org/1999/xlink">
<path d="M120.141,100.482C120.278,101.299 121.051,101.85 121.868,101.713C122.685,101.576 123.236,100.803 123.099,99.986L120.141,100.482ZM91.78,42.794L92.833,41.726L92.826,41.719L91.78,42.794ZM82.807,36.22L82.24,37.609L82.242,37.61L82.807,36.22ZM41.193,36.22L41.759,37.61L41.76,37.609L41.193,36.22ZM32.22,42.794L31.173,41.72L31.167,41.726L32.22,42.794ZM2.38,100.234L0.901,99.986L0.9,99.988L2.38,100.234ZM123.093,99.987C122.957,99.17 122.184,98.618 121.367,98.754C120.55,98.89 119.998,99.663 120.134,100.48L123.093,99.987ZM123.099,99.986C119.393,77.865 108.802,57.477 92.833,41.726L90.727,43.862C106.246,59.169 116.539,78.983 120.141,100.482L123.099,99.986ZM92.826,41.719C89.378,38.363 87.475,36.498 83.371,34.831L82.242,37.61C85.752,39.036 87.289,40.517 90.734,43.869L92.826,41.719ZM83.373,34.832C79.245,33.147 75.659,33.167 69.187,33.167L69.187,36.167C75.794,36.167 78.755,36.187 82.24,37.609L83.373,34.832ZM69.187,33.167L54.813,33.167L54.813,36.167L69.187,36.167L69.187,33.167ZM54.813,33.167C48.341,33.167 44.755,33.147 40.627,34.832L41.76,37.609C45.245,36.187 48.206,36.167 54.813,36.167L54.813,33.167ZM40.628,34.831C36.532,36.498 34.618,38.362 31.173,41.72L33.267,43.868C36.702,40.519 38.255,39.036 41.759,37.61L40.628,34.831ZM31.167,41.726C15.198,57.477 4.607,77.865 0.901,99.986L3.859,100.482C7.461,78.983 17.755,59.169 33.273,43.862L31.167,41.726ZM0.9,99.988C-0.816,110.342 3.122,119.438 10.075,125.895C17.005,132.329 26.941,136.167 37.387,136.167L37.387,133.167C27.646,133.167 18.455,129.581 12.116,123.696C5.801,117.832 2.329,109.712 3.86,100.479L0.9,99.988ZM37.387,136.167L86.613,136.167L86.613,133.167L37.387,133.167L37.387,136.167ZM86.613,136.167C97.062,136.167 107.001,132.33 113.932,125.895C120.885,119.438 124.82,110.341 123.093,99.987L120.134,100.48C121.674,109.713 118.205,117.833 111.89,123.696C105.552,129.581 96.358,133.167 86.613,133.167L86.613,136.167Z" fill="#FFFFFF"/>
<path d="M30.38,17.62L31.616,16.771L31.615,16.768L30.38,17.62ZM31.127,12.287L31.348,13.77L31.351,13.77L31.127,12.287ZM44.06,14.487L44.079,15.987L44.083,15.987L44.06,14.487ZM52.06,10.233L53.194,11.215L53.195,11.214L52.06,10.233ZM71.94,10.233L70.805,11.214L70.805,11.215L71.94,10.233ZM79.94,14.48L79.963,12.98L79.958,12.98L79.94,14.48ZM92.873,12.28L93.096,10.797L93.095,10.797L92.873,12.28ZM93.62,17.613L92.385,16.762L92.383,16.765L93.62,17.613ZM87.407,26.673L88.641,27.525L88.644,27.522L87.407,26.673ZM36.593,26.667L35.357,27.516L35.358,27.518L36.593,26.667ZM71.399,74.518C71.615,75.318 72.438,75.791 73.238,75.575C74.038,75.359 74.511,74.535 74.295,73.735L71.399,74.518ZM58.373,83.973L58.235,85.467L58.236,85.467L58.373,83.973ZM71.913,86.72L70.883,87.811L70.885,87.813L71.913,86.72ZM66.987,102.08L66.587,100.634L66.587,100.634L66.987,102.08ZM49.198,94.755C49.055,93.939 48.278,93.393 47.461,93.536C46.645,93.679 46.1,94.456 46.242,95.272L49.198,94.755ZM62.447,61.28C62.447,60.452 61.775,59.78 60.947,59.78C60.118,59.78 59.447,60.452 59.447,61.28L62.447,61.28ZM59.447,66.353C59.447,67.182 60.118,67.853 60.947,67.853C61.775,67.853 62.447,67.182 62.447,66.353L59.447,66.353ZM62.447,102.86C62.447,102.032 61.775,101.36 60.947,101.36C60.118,101.36 59.447,102.032 59.447,102.86L62.447,102.86ZM59.447,107.953C59.447,108.782 60.118,109.453 60.947,109.453C61.775,109.453 62.447,108.782 62.447,107.953L59.447,107.953ZM31.615,16.768C31.255,16.247 30.913,15.759 30.633,15.277C30.344,14.78 30.208,14.428 30.173,14.204C30.158,14.108 30.17,14.084 30.165,14.105C30.156,14.137 30.138,14.159 30.141,14.156C30.178,14.119 30.446,13.905 31.348,13.77L30.906,10.803C29.748,10.976 28.72,11.331 28.015,12.039C27.228,12.83 27.077,13.812 27.208,14.663C27.33,15.446 27.693,16.187 28.038,16.782C28.391,17.391 28.815,17.993 29.145,18.472L31.615,16.768ZM31.351,13.77C33.096,13.506 34.951,13.962 37.143,14.606C39.215,15.215 41.646,16.017 44.079,15.987L44.041,12.987C42.167,13.01 40.248,12.392 37.989,11.728C35.849,11.099 33.39,10.428 30.902,10.804L31.351,13.77ZM44.083,15.987C46.266,15.953 47.995,15.444 49.488,14.549C50.948,13.675 52.104,12.476 53.194,11.215L50.925,9.252C49.883,10.457 48.982,11.356 47.946,11.976C46.945,12.576 45.74,12.961 44.037,12.987L44.083,15.987ZM53.195,11.214C53.803,10.51 54.486,9.565 55.169,8.64C55.874,7.686 56.616,6.7 57.408,5.803C59.071,3.916 60.602,2.833 62,2.833L62,-0.167C59.165,-0.167 56.845,1.904 55.157,3.819C54.273,4.822 53.464,5.9 52.756,6.858C52.028,7.844 51.437,8.66 50.925,9.253L53.195,11.214ZM62,2.833C63.398,2.833 64.929,3.916 66.592,5.803C67.384,6.7 68.126,7.686 68.831,8.64C69.514,9.565 70.197,10.51 70.805,11.214L73.075,9.253C72.563,8.66 71.972,7.844 71.244,6.858C70.536,5.9 69.727,4.822 68.843,3.819C67.155,1.904 64.835,-0.167 62,-0.167L62,2.833ZM70.805,11.215C71.896,12.475 73.051,13.676 74.511,14.551C76.006,15.447 77.737,15.954 79.922,15.98L79.958,12.98C78.257,12.96 77.054,12.577 76.053,11.978C75.019,11.358 74.118,10.458 73.074,9.252L70.805,11.215ZM79.917,15.98C82.352,16.018 84.784,15.217 86.858,14.607C89.051,13.961 90.906,13.502 92.651,13.764L93.095,10.797C90.608,10.425 88.149,11.099 86.011,11.729C83.752,12.393 81.835,13.009 79.963,12.98L79.917,15.98ZM92.65,13.763C93.552,13.899 93.821,14.114 93.859,14.152C93.862,14.155 93.844,14.133 93.835,14.101C93.829,14.08 93.842,14.104 93.827,14.2C93.792,14.422 93.656,14.774 93.368,15.271C93.088,15.753 92.745,16.24 92.385,16.762L94.855,18.465C95.185,17.987 95.609,17.385 95.962,16.777C96.307,16.183 96.67,15.442 96.791,14.659C96.923,13.808 96.772,12.826 95.985,12.036C95.281,11.328 94.254,10.971 93.096,10.797L92.65,13.763ZM92.383,16.765L86.17,25.825L88.644,27.522L94.857,18.462L92.383,16.765ZM86.172,25.822C83.441,29.781 82.36,31.276 80.076,32.178L81.177,34.969C84.466,33.67 86.039,31.299 88.641,27.525L86.172,25.822ZM80.076,32.178C78.892,32.646 77.474,32.904 75.398,33.036C73.31,33.168 70.67,33.167 67.053,33.167L67.053,36.167C70.63,36.167 73.383,36.169 75.587,36.03C77.802,35.889 79.575,35.601 81.177,34.969L80.076,32.178ZM67.053,33.167L56.947,33.167L56.947,36.167L67.053,36.167L67.053,33.167ZM56.947,33.167C53.327,33.167 50.685,33.166 48.598,33.033C46.521,32.901 45.104,32.642 43.922,32.177L42.824,34.969C44.423,35.598 46.192,35.886 48.407,36.027C50.612,36.167 53.366,36.167 56.947,36.167L56.947,33.167ZM43.922,32.177C41.647,31.283 40.561,29.778 37.828,25.815L35.358,27.518C37.959,31.289 39.54,33.678 42.824,34.969L43.922,32.177ZM37.83,25.818L31.616,16.771L29.144,18.469L35.357,27.516L37.83,25.818ZM74.295,73.735C72.594,67.444 64.241,62.309 54.693,66.205L55.827,68.982C63.892,65.691 70.219,70.157 71.399,74.518L74.295,73.735ZM54.693,66.205C49.848,68.182 46.761,72.476 47.024,76.761C47.158,78.931 48.161,80.988 50.082,82.56C51.98,84.114 54.702,85.14 58.235,85.467L58.512,82.48C55.388,82.19 53.291,81.31 51.982,80.238C50.695,79.185 50.1,77.897 50.019,76.576C49.853,73.878 51.865,70.599 55.827,68.982L54.693,66.205ZM58.236,85.467C59.804,85.611 61.229,85.64 62.504,85.659C63.801,85.677 64.901,85.685 65.923,85.776C67.893,85.95 69.409,86.418 70.883,87.811L72.943,85.629C70.824,83.629 68.584,83 66.188,82.788C65.028,82.685 63.794,82.677 62.548,82.659C61.281,82.641 59.956,82.612 58.51,82.48L58.236,85.467ZM70.885,87.813C72.274,89.118 73.227,91.796 72.769,94.464C72.335,96.988 70.626,99.518 66.587,100.634L67.386,103.526C72.541,102.102 75.095,98.646 75.726,94.972C76.332,91.441 75.153,87.708 72.941,85.628L70.885,87.813ZM66.587,100.634C62.302,101.82 58.063,101.476 54.825,100.216C51.527,98.934 49.563,96.846 49.198,94.755L46.242,95.272C46.863,98.821 49.943,101.536 53.737,103.012C57.59,104.511 62.491,104.88 67.387,103.526L66.587,100.634ZM59.447,61.28L59.447,66.353L62.447,66.353L62.447,61.28L59.447,61.28ZM59.447,102.86L59.447,107.953L62.447,107.953L62.447,102.86L59.447,102.86Z" fill="#FFFFFF"/>
</svg>
