<svg width="60" height="60" viewBox="0 0 60 60" fill="none" xmlns="http://www.w3.org/2000/svg" xmlns:xlink="http://www.w3.org/1999/xlink">
<path d="M30,0C26.077,0 23.077,3 23.077,6.923L23.077,20.769C23.077,24.692 26.077,27.692 30,27.692L43.846,27.692L53.077,36.923L53.077,27.692C57,27.692 60,24.692 60,20.769L60,6.923C60,3 57,0 53.077,0L30,0ZM39.665,6.923L43.629,6.923L47.525,20.769L44.063,20.769L43.124,17.308L39.662,17.308L38.799,20.769L35.769,20.769L39.665,6.923ZM41.538,9.231C41.308,10.154 41.049,11.28 40.816,11.972L40.17,15L42.909,15L42.258,11.97C41.799,11.28 41.538,10.154 41.538,9.231ZM6.923,23.077C3,23.077 0,26.077 0,30L0,43.846C0,47.769 3,50.769 6.923,50.769L6.923,60L16.154,50.769L30,50.769C33.923,50.769 36.923,47.769 36.923,43.846L36.923,30L30,30C25.615,30 22.14,27 20.986,23.077L6.923,23.077ZM17.525,29.783C21.448,29.783 23.294,33.014 23.294,36.706C23.294,39.937 22.184,41.986 20.338,42.909C21.261,43.371 22.355,43.615 23.508,43.846L22.645,46.154C21.03,45.692 19.355,44.972 17.739,44.278C17.508,44.047 17.105,44.063 16.874,44.063C14.105,43.832 11.538,41.538 11.538,36.923C11.538,33 13.832,29.783 17.525,29.783ZM17.525,32.308C15.678,32.308 14.783,34.385 14.783,36.923C14.783,39.692 15.678,41.538 17.525,41.538C19.371,41.538 20.335,39.462 20.335,36.923C20.335,34.385 19.371,32.308 17.525,32.308Z" fill="#FF3030"/>
</svg>
