<svg width="140" height="102" viewBox="0 0 140 102" fill="none" xmlns="http://www.w3.org/2000/svg" xmlns:xlink="http://www.w3.org/1999/xlink">
<path d="M61.462,72.462L121.462,12.462C121.927,11.998 122.479,11.629 123.085,11.378C123.692,11.126 124.343,10.997 125,10.997C125.657,10.997 126.307,11.126 126.914,11.378C127.521,11.629 128.073,11.998 128.537,12.462C129.002,12.927 129.371,13.478 129.622,14.085C129.873,14.692 130.003,15.343 130.003,16C130.003,16.657 129.873,17.307 129.622,17.914C129.371,18.521 129.002,19.073 128.537,19.537L68.537,79.537C68.073,80.002 67.521,80.37 66.914,80.622C66.307,80.873 65.657,81.003 65,81.003C64.343,81.003 63.692,80.873 63.085,80.622C62.479,80.37 61.927,80.002 61.462,79.537C60.998,79.073 60.629,78.521 60.378,77.914C60.127,77.307 59.997,76.657 59.997,76C59.997,75.343 60.127,74.692 60.378,74.085C60.629,73.478 60.998,72.927 61.462,72.462ZM70,31C74.343,30.994 78.658,31.697 82.775,33.081C83.4,33.303 84.063,33.398 84.725,33.361C85.387,33.324 86.035,33.155 86.632,32.865C87.228,32.575 87.761,32.17 88.199,31.672C88.637,31.174 88.972,30.594 89.184,29.966C89.396,29.337 89.48,28.673 89.433,28.011C89.386,27.35 89.207,26.704 88.908,26.113C88.609,25.521 88.195,24.994 87.69,24.564C87.186,24.134 86.6,23.808 85.969,23.606C78.001,20.92 69.484,20.286 61.206,21.765C52.929,23.243 45.157,26.785 38.612,32.063C32.066,37.34 26.957,44.184 23.757,51.96C20.557,59.736 19.371,68.193 20.306,76.55C20.441,77.772 21.022,78.901 21.938,79.722C22.853,80.543 24.039,80.998 25.269,81C25.45,81 25.637,81 25.825,80.969C27.143,80.822 28.348,80.159 29.177,79.124C30.006,78.089 30.389,76.768 30.244,75.45C30.081,73.972 30,72.486 30,71C30.012,60.395 34.23,50.227 41.728,42.728C49.227,35.229 59.395,31.011 70,31ZM132.337,39.125C132.038,38.54 131.626,38.021 131.126,37.596C130.625,37.17 130.046,36.848 129.421,36.646C128.796,36.445 128.137,36.369 127.483,36.422C126.828,36.475 126.191,36.656 125.606,36.956C125.022,37.256 124.502,37.667 124.077,38.168C123.652,38.668 123.329,39.247 123.128,39.873C122.926,40.498 122.85,41.156 122.903,41.811C122.956,42.465 123.138,43.103 123.437,43.687C127.137,50.952 129.321,58.892 129.858,67.026C130.395,75.16 129.274,83.318 126.562,91.006L13.375,90.962C10.217,81.91 9.269,72.234 10.609,62.741C11.949,53.248 15.539,44.212 21.08,36.388C26.621,28.564 33.951,22.177 42.461,17.761C50.971,13.345 60.413,11.027 70,11L70.55,11C79.862,11.058 89.03,13.306 97.312,17.562C97.898,17.885 98.543,18.086 99.208,18.155C99.874,18.224 100.546,18.159 101.186,17.963C101.825,17.768 102.419,17.446 102.932,17.016C103.445,16.587 103.867,16.059 104.172,15.464C104.477,14.869 104.66,14.219 104.71,13.552C104.759,12.885 104.674,12.214 104.46,11.581C104.246,10.947 103.907,10.363 103.463,9.863C103.019,9.362 102.479,8.956 101.875,8.669C89.406,2.282 75.307,-0.217 61.403,1.497C47.499,3.21 34.428,9.056 23.882,18.278C13.337,27.5 5.801,39.675 2.249,53.227C-1.302,66.779 -0.705,81.084 3.962,94.294C4.652,96.251 5.931,97.946 7.623,99.147C9.315,100.348 11.338,100.995 13.412,101L126.581,101C128.655,101.001 130.678,100.358 132.37,99.158C134.062,97.959 135.339,96.263 136.025,94.306C139.179,85.337 140.478,75.82 139.844,66.334C139.21,56.848 136.656,47.589 132.337,39.119L132.337,39.125Z" fill="#FFFCFC"/>
</svg>
