<svg width="180" height="174" viewBox="0 0 180 174" fill="none" xmlns="http://www.w3.org/2000/svg" xmlns:xlink="http://www.w3.org/1999/xlink">
<path d="M180,86.927C180,94.97 178.945,102.673 176.836,110.036C174.727,117.399 171.709,124.338 167.783,130.852C163.857,137.365 159.17,143.228 153.721,148.439C148.271,153.649 142.178,158.181 135.439,162.032C128.701,165.884 121.523,168.801 113.906,170.783C106.289,172.766 98.32,173.814 90,173.927C81.68,173.927 73.711,172.907 66.094,170.868C58.477,168.829 51.299,165.912 44.561,162.117C37.822,158.322 31.758,153.791 26.367,148.523C20.977,143.256 16.289,137.365 12.305,130.852C8.32,124.338 5.303,117.399 3.252,110.036C1.201,102.673 0.117,94.97 0,86.927C0,78.94 1.055,71.237 3.164,63.817C5.273,56.398 8.291,49.459 12.217,43.002C16.143,36.545 20.83,30.683 26.279,25.415C31.729,20.148 37.822,15.616 44.561,11.821C51.299,8.026 58.477,5.109 66.094,3.07C73.711,1.031 81.68,-0.017 90,-0.073C98.262,-0.073 106.23,0.946 113.906,2.985C121.582,5.024 128.76,7.941 135.439,11.736C142.119,15.531 148.184,20.063 153.633,25.33C159.082,30.598 163.77,36.488 167.695,43.002C171.621,49.516 174.639,56.454 176.748,63.817C178.857,71.181 179.941,78.884 180,86.927ZM90,163.052C97.207,163.052 104.15,162.146 110.83,160.333C117.51,158.521 123.779,155.972 129.639,152.687C135.498,149.401 140.83,145.408 145.635,140.707C150.439,136.006 154.541,130.88 157.939,125.329C161.338,119.778 164.004,113.718 165.938,107.148C167.871,100.577 168.809,93.837 168.75,86.927C168.75,79.96 167.812,73.248 165.938,66.791C164.062,60.334 161.426,54.273 158.027,48.609C154.629,42.945 150.498,37.791 145.635,33.147C140.771,28.502 135.469,24.537 129.727,21.252C123.984,17.967 117.715,15.39 110.918,13.521C104.121,11.651 97.148,10.745 90,10.802C82.734,10.802 75.762,11.708 69.082,13.521C62.402,15.333 56.162,17.882 50.361,21.167C44.561,24.452 39.229,28.445 34.365,33.147C29.502,37.848 25.4,42.974 22.061,48.524C18.721,54.075 16.055,60.136 14.063,66.706C12.07,73.276 11.133,80.017 11.25,86.927C11.25,93.95 12.188,100.69 14.063,107.148C15.938,113.605 18.574,119.637 21.973,125.244C25.371,130.852 29.502,136.006 34.365,140.707C39.229,145.408 44.531,149.373 50.273,152.602C56.016,155.83 62.285,158.407 69.082,160.333C75.879,162.259 82.852,163.165 90,163.052ZM95.098,37.989L101.25,37.989L101.25,135.864L90,135.864L90,58.89C86.66,60.929 83.086,62.486 79.277,63.563C75.469,64.639 71.543,65.177 67.5,65.177L67.5,54.302C73.535,54.302 78.926,52.857 83.672,49.969C88.418,47.08 92.227,43.087 95.098,37.989Z" fill="#D3B201"/>
</svg>
