<svg width="56" height="56" viewBox="0 0 56 56" fill="none" xmlns="http://www.w3.org/2000/svg" xmlns:xlink="http://www.w3.org/1999/xlink">
<path d="M40.023,35.22L37.493,35.22L36.597,34.356C39.843,30.59 41.628,25.783 41.624,20.812C41.624,16.696 40.403,12.672 38.116,9.249C35.83,5.827 32.579,3.159 28.776,1.584C24.973,0.009 20.789,-0.403 16.752,0.4C12.715,1.203 9.006,3.185 6.096,6.096C3.185,9.006 1.203,12.715 0.4,16.752C-0.403,20.789 0.009,24.973 1.584,28.776C3.159,32.579 5.827,35.83 9.249,38.116C12.672,40.403 16.696,41.624 20.812,41.624C25.967,41.624 30.706,39.735 34.356,36.597L35.22,37.493L35.22,40.023L51.229,56L56,51.229L40.023,35.22ZM20.812,35.22C12.839,35.22 6.404,28.784 6.404,20.812C6.404,12.839 12.839,6.404 20.812,6.404C28.784,6.404 35.22,12.839 35.22,20.812C35.22,28.784 28.784,35.22 20.812,35.22Z" fill="#000000"/>
</svg>
