<svg width="46" height="38" viewBox="0 0 46 38" fill="none" xmlns="http://www.w3.org/2000/svg" xmlns:xlink="http://www.w3.org/1999/xlink">
<path d="M3.571,37.001L21.529,7.8C21.921,7.16 22.45,6.8 23.001,6.8C23.552,6.8 24.081,7.16 24.473,7.8L42.431,36.995C42.825,37.635 43.356,37.994 43.909,37.994C44.462,37.994 44.992,37.635 45.387,36.995C45.581,36.682 45.735,36.308 45.84,35.896C45.946,35.483 46,35.039 46,34.592C46,34.144 45.946,33.7 45.84,33.287C45.735,32.875 45.581,32.501 45.387,32.188L27.432,2.993C26.249,1.075 24.658,0 23.001,0C21.344,0 19.752,1.075 18.57,2.993L0.615,32.188C0.421,32.501 0.266,32.875 0.16,33.288C0.054,33.702 0,34.146 0,34.595C0,35.043 0.054,35.488 0.16,35.901C0.266,36.314 0.421,36.688 0.615,37.001C1.01,37.641 1.54,38 2.093,38C2.646,38 3.176,37.641 3.571,37.001Z" fill="#636363"/>
</svg>
