<svg width="156" height="106" viewBox="0 0 156 106" fill="none" xmlns="http://www.w3.org/2000/svg" xmlns:xlink="http://www.w3.org/1999/xlink">
<path d="M154.204,36.054L138.248,4.179C137.807,3.298 137.198,2.512 136.454,1.866C135.71,1.221 134.846,0.728 133.912,0.417C132.977,0.105 131.991,-0.02 131.008,0.05C130.025,0.12 129.066,0.382 128.185,0.823L111.798,8.985L78.123,0.085C77.713,-0.023 77.282,-0.023 76.873,0.085L43.198,8.985L26.81,0.791C25.929,0.351 24.97,0.088 23.987,0.019C23.005,-0.051 22.018,0.074 21.084,0.385C20.149,0.697 19.285,1.19 18.542,1.835C17.798,2.481 17.188,3.267 16.748,4.148L0.791,36.054C0.351,36.935 0.088,37.894 0.019,38.877C-0.051,39.859 0.074,40.846 0.385,41.78C0.697,42.715 1.19,43.579 1.835,44.323C2.481,45.067 3.267,45.676 4.148,46.116L21.204,54.648L56.048,79.535C56.302,79.717 56.588,79.849 56.891,79.923L96.891,89.923C97.308,90.032 97.745,90.031 98.161,89.922C98.577,89.812 98.958,89.597 99.266,89.298L133.979,54.585L150.854,46.148C151.735,45.707 152.521,45.098 153.166,44.354C153.812,43.61 154.305,42.746 154.616,41.812C154.928,40.877 155.053,39.891 154.983,38.908C154.913,37.925 154.651,36.966 154.21,36.085L154.204,36.054ZM122.329,59.148L99.079,40.523C98.598,40.137 97.99,39.942 97.374,39.977C96.758,40.011 96.177,40.273 95.741,40.71C83.56,52.985 69.904,51.404 61.185,45.835C60.864,45.629 60.594,45.354 60.394,45.029C60.193,44.705 60.069,44.339 60.029,43.96C59.986,43.595 60.026,43.225 60.147,42.878C60.267,42.53 60.464,42.215 60.723,41.954L88.51,14.998L110.954,14.998L129.454,52.004L122.329,59.148ZM5.129,40.198C4.929,39.579 4.978,38.906 5.266,38.323L21.248,6.385C21.453,5.972 21.768,5.624 22.158,5.38C22.549,5.135 22.999,5.003 23.46,4.998C23.847,5 24.228,5.092 24.573,5.266L39.573,12.766L21.379,49.148L6.379,41.648C6.086,41.5 5.824,41.296 5.61,41.047C5.395,40.798 5.232,40.51 5.129,40.198ZM96.729,84.729L58.566,75.185L25.691,51.704L44.654,13.748L77.498,5.085L96.073,9.998L87.498,9.998C86.847,9.997 86.221,10.25 85.754,10.704L57.191,38.41C56.397,39.205 55.791,40.169 55.418,41.229C55.046,42.29 54.917,43.421 55.04,44.538C55.164,45.656 55.537,46.731 56.132,47.684C56.728,48.638 57.53,49.446 58.479,50.048C70.904,57.991 86.06,56.298 97.641,45.791L118.748,62.704L96.729,84.729ZM149.854,40.198C149.751,40.51 149.588,40.798 149.373,41.047C149.159,41.296 148.897,41.5 148.604,41.648L133.604,49.148L115.423,12.766L130.423,5.266C131.013,4.979 131.692,4.935 132.314,5.145C132.936,5.354 133.451,5.8 133.748,6.385L149.704,38.291C150.009,38.88 150.067,39.566 149.866,40.198L149.854,40.198ZM77.46,103.123C77.321,103.66 77.008,104.136 76.569,104.475C76.13,104.815 75.59,104.999 75.035,104.998C74.825,104.999 74.615,104.974 74.41,104.923L48.36,98.404C48.055,98.329 47.767,98.198 47.51,98.016L31.048,86.248C30.508,85.862 30.144,85.278 30.035,84.624C29.926,83.97 30.081,83.3 30.466,82.76C30.852,82.221 31.436,81.856 32.09,81.747C32.744,81.638 33.414,81.794 33.954,82.179L50.029,93.66L75.654,100.066C75.974,100.147 76.275,100.291 76.539,100.488C76.803,100.686 77.026,100.934 77.194,101.218C77.362,101.502 77.472,101.817 77.517,102.144C77.563,102.471 77.544,102.803 77.46,103.123Z" fill="#FFFFFF"/>
</svg>
