<svg width="120" height="134" viewBox="0 0 120 134" fill="none" xmlns="http://www.w3.org/2000/svg" xmlns:xlink="http://www.w3.org/1999/xlink">
<path d="M60,-0.667C75.913,-0.667 91.174,5.655 102.426,16.907C113.679,28.159 120,43.42 120,59.333C120,79.827 108.827,96.6 97.053,108.633C91.171,114.581 84.753,119.972 77.88,124.74L75.04,126.673L73.707,127.56L71.193,129.16L68.953,130.527L66.18,132.14C64.298,133.215 62.168,133.78 60,133.78C57.832,133.78 55.702,133.215 53.82,132.14L51.047,130.527L47.58,128.393L46.3,127.56L43.567,125.74C36.152,120.724 29.246,114.994 22.947,108.633C11.173,96.593 0,79.827 0,59.333C0,43.42 6.321,28.159 17.574,16.907C28.826,5.655 44.087,-0.667 60,-0.667ZM60,12.667C47.623,12.667 35.753,17.583 27.002,26.335C18.25,35.087 13.333,46.957 13.333,59.333C13.333,74.813 21.813,88.4 32.473,99.307C37.057,103.947 42.011,108.205 47.287,112.04L50.34,114.213C51.327,114.902 52.276,115.542 53.187,116.133L55.787,117.8L58.073,119.193L60,120.32L63.033,118.527L65.48,116.993C66.782,116.167 68.176,115.24 69.66,114.213L72.713,112.04C77.989,108.205 82.943,103.947 87.527,99.307C98.187,88.407 106.667,74.813 106.667,59.333C106.667,46.957 101.75,35.087 92.998,26.335C84.247,17.583 72.377,12.667 60,12.667ZM60,32.667C67.072,32.667 73.855,35.476 78.856,40.477C83.857,45.478 86.667,52.261 86.667,59.333C86.667,66.406 83.857,73.189 78.856,78.19C73.855,83.191 67.072,86 60,86C52.928,86 46.145,83.191 41.144,78.19C36.143,73.189 33.333,66.406 33.333,59.333C33.333,52.261 36.143,45.478 41.144,40.477C46.145,35.476 52.928,32.667 60,32.667ZM60,46C56.464,46 53.072,47.405 50.572,49.905C48.071,52.406 46.667,55.797 46.667,59.333C46.667,62.87 48.071,66.261 50.572,68.761C53.072,71.262 56.464,72.667 60,72.667C63.536,72.667 66.928,71.262 69.428,68.761C71.929,66.261 73.333,62.87 73.333,59.333C73.333,55.797 71.929,52.406 69.428,49.905C66.928,47.405 63.536,46 60,46Z" clip-rule="evenodd" fill-rule="evenodd" fill="#FFFFFF"/>
</svg>
