<svg width="38" height="44" viewBox="0 0 38 44" fill="none" xmlns="http://www.w3.org/2000/svg" xmlns:xlink="http://www.w3.org/1999/xlink">
<path d="M20.06,-0.06C19.779,-0.341 19.398,-0.499 19,-0.499C18.603,-0.499 18.222,-0.341 17.94,-0.06L7.94,9.94C7.793,10.077 7.675,10.243 7.593,10.427C7.511,10.611 7.467,10.81 7.463,11.011C7.46,11.213 7.497,11.413 7.572,11.599C7.648,11.786 7.76,11.956 7.902,12.098C8.045,12.241 8.214,12.353 8.401,12.428C8.588,12.504 8.788,12.541 8.989,12.537C9.191,12.534 9.389,12.49 9.573,12.408C9.757,12.326 9.923,12.208 10.06,12.06L17.5,4.62L17.5,27.667C17.5,28.065 17.658,28.446 17.94,28.727C18.221,29.009 18.603,29.167 19,29.167C19.398,29.167 19.78,29.009 20.061,28.727C20.342,28.446 20.5,28.065 20.5,27.667L20.5,4.62L27.94,12.06C28.078,12.208 28.243,12.326 28.427,12.408C28.611,12.49 28.81,12.534 29.011,12.537C29.213,12.541 29.413,12.504 29.6,12.428C29.786,12.353 29.956,12.241 30.098,12.098C30.241,11.956 30.353,11.786 30.429,11.599C30.504,11.413 30.541,11.213 30.538,11.011C30.534,10.81 30.49,10.611 30.408,10.427C30.326,10.243 30.208,10.077 30.06,9.94L20.06,-0.06ZM2.334,29.333C2.776,29.333 3.2,29.509 3.512,29.822C3.825,30.134 4,30.558 4,31L4,36C4,37.847 5.487,39.333 7.32,39.333L30.67,39.333C31.554,39.333 32.401,38.981 33.025,38.356C33.65,37.731 34,36.884 34,36L34,31C34,30.558 34.176,30.134 34.488,29.822C34.801,29.509 35.225,29.333 35.667,29.333C36.109,29.333 36.533,29.509 36.846,29.822C37.158,30.134 37.334,30.558 37.334,31L37.334,36C37.334,37.768 36.632,39.463 35.382,40.713C34.133,41.963 32.438,42.666 30.67,42.667L7.32,42.667C6.446,42.666 5.58,42.493 4.772,42.158C3.964,41.823 3.23,41.331 2.612,40.712C1.994,40.093 1.504,39.358 1.171,38.55C0.837,37.741 0.666,36.875 0.667,36L0.667,31C0.667,30.558 0.843,30.134 1.155,29.822C1.468,29.509 1.892,29.333 2.334,29.333Z" clip-rule="evenodd" fill-rule="evenodd" fill="#F8F8F8"/>
</svg>
