<svg width="54" height="54" viewBox="0 0 54 54" fill="none" xmlns="http://www.w3.org/2000/svg" xmlns:xlink="http://www.w3.org/1999/xlink">
<path d="M26,26C22.333,26 19.195,24.695 16.583,22.083C13.972,19.472 12.667,16.333 12.667,12.667C12.667,9 13.972,5.861 16.583,3.25C19.195,0.639 22.333,-0.667 26,-0.667C29.667,-0.667 32.806,0.639 35.417,3.25C38.028,5.861 39.333,9 39.333,12.667C39.333,16.333 38.028,19.472 35.417,22.083C32.806,24.695 29.667,26 26,26ZM-0.667,52.667L-0.667,43.333C-0.667,41.445 -0.18,39.709 0.793,38.127C1.767,36.545 3.058,35.336 4.667,34.5C8.111,32.778 11.611,31.487 15.167,30.627C18.722,29.767 22.333,29.336 26,29.333C29.667,29.331 33.278,29.762 36.833,30.627C40.389,31.491 43.889,32.782 47.333,34.5C48.945,35.333 50.237,36.542 51.21,38.127C52.183,39.711 52.669,41.447 52.667,43.333L52.667,52.667L-0.667,52.667ZM6,46L46,46L46,43.333C46,42.722 45.848,42.167 45.543,41.667C45.239,41.167 44.836,40.778 44.333,40.5C41.333,39 38.306,37.876 35.25,37.127C32.195,36.378 29.111,36.002 26,36C22.889,35.998 19.806,36.373 16.75,37.127C13.695,37.88 10.667,39.005 7.667,40.5C7.167,40.778 6.763,41.167 6.457,41.667C6.15,42.167 5.998,42.722 6,43.333L6,46ZM26,19.333C27.833,19.333 29.403,18.681 30.71,17.377C32.017,16.072 32.669,14.502 32.667,12.667C32.665,10.831 32.012,9.262 30.71,7.96C29.408,6.658 27.838,6.005 26,6C24.162,5.996 22.593,6.649 21.293,7.96C19.993,9.271 19.34,10.84 19.333,12.667C19.327,14.493 19.98,16.063 21.293,17.377C22.607,18.69 24.176,19.342 26,19.333Z" fill="#000000"/>
</svg>
