<svg width="50" height="50" viewBox="0 0 50 50" fill="none" xmlns="http://www.w3.org/2000/svg" xmlns:xlink="http://www.w3.org/1999/xlink">
<path d="M41.667,0C43.877,0 45.996,0.878 47.559,2.441C49.122,4.004 50,6.123 50,8.333L50,41.667C50,43.877 49.122,45.996 47.559,47.559C45.996,49.122 43.877,50 41.667,50L8.333,50C6.123,50 4.004,49.122 2.441,47.559C0.878,45.996 0,43.877 0,41.667L0,8.333C0,6.123 0.878,4.004 2.441,2.441C4.004,0.878 6.123,0 8.333,0L41.667,0ZM13.889,19.444C13.152,19.444 12.446,19.737 11.925,20.258C11.404,20.779 11.111,21.486 11.111,22.222L11.111,36.111C11.111,36.848 11.404,37.554 11.925,38.075C12.446,38.596 13.152,38.889 13.889,38.889C14.626,38.889 15.332,38.596 15.853,38.075C16.374,37.554 16.667,36.848 16.667,36.111L16.667,22.222C16.667,21.486 16.374,20.779 15.853,20.258C15.332,19.737 14.626,19.444 13.889,19.444ZM22.222,16.667C21.486,16.667 20.779,16.959 20.258,17.48C19.737,18.001 19.444,18.708 19.444,19.444L19.444,36.111C19.444,36.848 19.737,37.554 20.258,38.075C20.779,38.596 21.486,38.889 22.222,38.889C22.959,38.889 23.665,38.596 24.186,38.075C24.707,37.554 25,36.848 25,36.111L25,25.944C25.847,24.989 27.278,23.867 28.869,23.186C29.794,22.792 31.186,22.631 32.153,22.936C32.473,23.017 32.759,23.201 32.967,23.458C33.111,23.653 33.333,24.086 33.333,25L33.333,36.111C33.333,36.848 33.626,37.554 34.147,38.075C34.668,38.596 35.374,38.889 36.111,38.889C36.848,38.889 37.554,38.596 38.075,38.075C38.596,37.554 38.889,36.848 38.889,36.111L38.889,25C38.889,23.139 38.417,21.483 37.433,20.156C36.528,18.952 35.262,18.069 33.819,17.636C31.314,16.85 28.539,17.286 26.686,18.081C26.093,18.336 25.515,18.625 24.956,18.947C24.839,18.307 24.502,17.728 24.002,17.312C23.503,16.895 22.873,16.667 22.222,16.667ZM13.889,11.111C13.152,11.111 12.446,11.404 11.925,11.925C11.404,12.446 11.111,13.152 11.111,13.889C11.111,14.626 11.404,15.332 11.925,15.853C12.446,16.374 13.152,16.667 13.889,16.667C14.626,16.667 15.332,16.374 15.853,15.853C16.374,15.332 16.667,14.626 16.667,13.889C16.667,13.152 16.374,12.446 15.853,11.925C15.332,11.404 14.626,11.111 13.889,11.111Z" clip-rule="evenodd" fill-rule="evenodd" fill="#3651FF"/>
</svg>
