<svg width="52" height="54" viewBox="0 0 52 54" fill="none" xmlns="http://www.w3.org/2000/svg" xmlns:xlink="http://www.w3.org/1999/xlink">
<path d="M52,26.159C52,11.71 40.358,-0.003 26,-0.003C11.635,0 -0.007,11.71 -0.007,26.163C-0.007,39.218 9.503,50.04 21.931,52.003L21.931,33.722L15.333,33.722L15.333,26.163L21.937,26.163L21.937,20.394C21.937,13.839 25.821,10.218 31.759,10.218C34.606,10.218 37.579,10.728 37.579,10.728L37.579,17.163L34.3,17.163C31.073,17.163 30.065,19.182 30.065,21.252L30.065,26.159L37.274,26.159L36.123,33.719L30.062,33.719L30.062,52C42.49,50.037 52,39.215 52,26.159Z" fill="#0A06FF"/>
</svg>
