<svg width="44" height="44" viewBox="0 0 44 44" fill="none" xmlns="http://www.w3.org/2000/svg" xmlns:xlink="http://www.w3.org/1999/xlink">
<path d="M6.126,0.5L13.628,0.5C13.933,0.5 14.231,0.593 14.482,0.767C14.733,0.94 14.925,1.186 15.032,1.472L17.944,9.212C18.04,9.468 18.064,9.745 18.014,10.014L16.554,17.838C18.348,22.054 21.31,24.888 26.22,27.43L33.95,25.93C34.225,25.877 34.509,25.902 34.77,26.002L42.534,28.962C42.818,29.07 43.062,29.262 43.235,29.512C43.407,29.762 43.5,30.058 43.5,30.362L43.5,37.53C43.5,40.782 40.636,43.42 37.284,42.69C31.178,41.362 19.864,37.984 11.94,30.06C4.348,22.47 1.804,11.986 0.95,6.32C0.46,3.084 3.054,0.5 6.126,0.5Z" clip-rule="evenodd" fill-rule="evenodd" fill="#000000"/>
</svg>
