<svg width="126" height="124" viewBox="0 0 126 124" fill="none" xmlns="http://www.w3.org/2000/svg" xmlns:xlink="http://www.w3.org/1999/xlink">
<path d="M118.981,83.037L89.538,69.844L89.456,69.806C87.928,69.152 86.26,68.89 84.605,69.043C82.949,69.196 81.358,69.759 79.975,70.681C79.812,70.789 79.656,70.905 79.506,71.031L64.294,84C54.656,79.319 44.706,69.444 40.025,59.931L53.013,44.487C53.138,44.331 53.256,44.175 53.369,44.006C54.271,42.627 54.819,41.046 54.963,39.404C55.107,37.761 54.843,36.109 54.194,34.594L54.194,34.519L40.963,5.025C40.105,3.045 38.63,1.396 36.757,0.324C34.885,-0.748 32.717,-1.186 30.575,-0.925C22.106,0.189 14.332,4.349 8.706,10.776C3.079,17.203 -0.015,25.458 0,34C0,83.625 40.375,124 90,124C98.542,124.015 106.797,120.921 113.224,115.294C119.652,109.668 123.811,101.894 124.925,93.425C125.187,91.284 124.75,89.116 123.679,87.244C122.607,85.372 120.96,83.896 118.981,83.037ZM90,114C68.79,113.977 48.455,105.541 33.457,90.543C18.459,75.545 10.023,55.21 10,34C9.977,27.897 12.175,21.994 16.186,17.393C20.196,12.793 25.744,9.809 31.794,9C31.791,9.025 31.791,9.05 31.794,9.075L44.919,38.45L32,53.912C31.869,54.063 31.75,54.224 31.644,54.394C30.703,55.837 30.152,57.499 30.042,59.218C29.933,60.937 30.269,62.655 31.019,64.206C36.681,75.787 48.35,87.369 60.056,93.025C61.619,93.768 63.347,94.093 65.072,93.968C66.798,93.843 68.461,93.272 69.9,92.312C70.061,92.205 70.215,92.088 70.363,91.962L85.556,79L114.931,92.156L115,92.156C114.201,98.214 111.222,103.773 106.62,107.794C102.019,111.814 96.11,114.021 90,114Z" fill="#FFFFFF"/>
</svg>
