<svg width="54" height="44" viewBox="0 0 54 44" fill="none" xmlns="http://www.w3.org/2000/svg" xmlns:xlink="http://www.w3.org/1999/xlink">
<path d="M53.917,0.89C53.893,0.564 53.766,0.251 53.551,-0.009C53.336,-0.269 53.044,-0.465 52.71,-0.572C52.376,-0.679 52.015,-0.692 51.673,-0.611C51.331,-0.529 51.022,-0.356 50.785,-0.113C49.608,1.109 48.076,1.992 46.371,2.43C44.073,0.438 41.042,-0.67 37.893,-0.667C34.515,-0.664 31.275,0.581 28.888,2.794C26.5,5.008 25.159,8.008 25.16,11.137L25.16,12.603C14.393,11.833 8.64,4.257 7.081,0.417C6.958,0.112 6.742,-0.152 6.459,-0.344C6.176,-0.536 5.839,-0.648 5.489,-0.665C5.139,-0.682 4.79,-0.604 4.487,-0.44C4.184,-0.276 3.94,-0.034 3.783,0.257C0.014,7.243 -0.565,14.023 2.174,19.797C4.572,24.853 9.396,28.88 16.236,31.55C13.129,33.587 7.898,36 1.8,36C1.413,36 1.037,36.114 0.726,36.327C0.416,36.54 0.187,36.84 0.075,37.183C-0.037,37.525 -0.027,37.892 0.103,38.229C0.233,38.566 0.477,38.855 0.799,39.053C6.649,42.667 12.78,42.667 18.475,42.667L18.648,42.667C36.147,42.667 50.328,29.513 50.328,13.293L50.328,11.697C51.635,10.463 52.653,9.207 53.28,7.577C53.975,5.757 54.115,3.65 53.917,0.89Z" fill="#4154FF"/>
</svg>
