<svg width="52" height="54" viewBox="0 0 52 54" fill="none" xmlns="http://www.w3.org/2000/svg" xmlns:xlink="http://www.w3.org/1999/xlink">
<path d="M52,26.159C52,11.71 40.359,-0.003 26,-0.003C11.635,0 -0.006,11.71 -0.006,26.162C-0.006,39.218 9.503,50.04 21.931,52.003L21.931,33.722L15.334,33.722L15.334,26.162L21.938,26.162L21.938,20.394C21.938,13.838 25.821,10.218 31.759,10.218C34.606,10.218 37.58,10.728 37.58,10.728L37.58,17.163L34.301,17.163C31.073,17.163 30.066,19.181 30.066,21.252L30.066,26.159L37.274,26.159L36.124,33.719L30.063,33.719L30.063,52C42.491,50.037 52,39.214 52,26.159Z" fill="#0A06FF"/>
</svg>
