<svg width="30" height="18" viewBox="0 0 30 18" fill="none" xmlns="http://www.w3.org/2000/svg" xmlns:xlink="http://www.w3.org/1999/xlink">
<path d="M16.591,17.341C16.169,17.763 15.597,17.999 15,17.999C14.403,17.999 13.831,17.763 13.409,17.341L0.681,4.612C0.466,4.405 0.295,4.157 0.177,3.882C0.059,3.608 -0.003,3.312 -0.006,3.014C-0.008,2.715 0.048,2.419 0.162,2.142C0.275,1.866 0.442,1.614 0.653,1.403C0.864,1.192 1.116,1.025 1.392,0.912C1.669,0.798 1.965,0.742 2.264,0.744C2.562,0.747 2.858,0.809 3.132,0.927C3.407,1.045 3.655,1.216 3.862,1.431L15,12.568L26.137,1.431C26.562,1.021 27.13,0.794 27.72,0.799C28.31,0.805 28.874,1.041 29.291,1.458C29.709,1.876 29.945,2.44 29.95,3.03C29.956,3.62 29.729,4.188 29.319,4.612L16.591,17.341Z" clip-rule="evenodd" fill-rule="evenodd" fill="#000000"/>
</svg>
