<svg width="40" height="40" viewBox="0 0 40 40" fill="none" xmlns="http://www.w3.org/2000/svg" xmlns:xlink="http://www.w3.org/1999/xlink">
<path d="M0,37.143C0,36.385 0.176,35.658 0.488,35.123C0.801,34.587 1.225,34.286 1.667,34.286L11.667,34.286C12.109,34.286 12.533,34.587 12.845,35.123C13.158,35.658 13.333,36.385 13.333,37.143C13.333,37.901 13.158,38.627 12.845,39.163C12.533,39.699 12.109,40 11.667,40L1.667,40C1.225,40 0.801,39.699 0.488,39.163C0.176,38.627 0,37.901 0,37.143ZM0,20C0,19.242 0.176,18.516 0.488,17.98C0.801,17.444 1.225,17.143 1.667,17.143L25,17.143C25.442,17.143 25.866,17.444 26.179,17.98C26.491,18.516 26.667,19.242 26.667,20C26.667,20.758 26.491,21.484 26.179,22.02C25.866,22.556 25.442,22.857 25,22.857L1.667,22.857C1.225,22.857 0.801,22.556 0.488,22.02C0.176,21.484 0,20.758 0,20ZM0,2.857C0,2.099 0.176,1.373 0.488,0.837C0.801,0.301 1.225,0 1.667,0L38.333,0C38.775,0 39.199,0.301 39.512,0.837C39.824,1.373 40,2.099 40,2.857C40,3.615 39.824,4.342 39.512,4.877C39.199,5.413 38.775,5.714 38.333,5.714L1.667,5.714C1.225,5.714 0.801,5.413 0.488,4.877C0.176,4.342 0,3.615 0,2.857Z" fill="#000000"/>
</svg>
